<?xml version="1.0" standalone="no"?>
<!DOCTYPE svg PUBLIC "-//W3C//DTD SVG 20010904//EN"
 "http://www.w3.org/TR/2001/REC-SVG-20010904/DTD/svg10.dtd">
<svg version="1.0" xmlns="http://www.w3.org/2000/svg"
 width="260.000000pt" height="260.000000pt" viewBox="0 0 260.000000 260.000000"
 preserveAspectRatio="xMidYMid meet">
<metadata>
Created by potrace 1.11, written by Peter Selinger 2001-2013
</metadata>
<g transform="translate(0.000000,260.000000) scale(0.100000,-0.100000)"
fill="#000000" stroke="none">
<path d="M1131 2590 c-556 -78 -987 -483 -1107 -1041 -26 -118 -26 -380 0
-498 59 -273 167 -474 360 -667 193 -193 394 -301 667 -360 118 -26 380 -26
498 0 273 59 474 167 667 360 193 193 301 394 360 667 14 62 18 127 18 249 0
122 -4 187 -18 249 -59 273 -167 474 -360 667 -190 189 -384 296 -646 355 -99
23 -340 33 -439 19z m116 -1023 c64 -33 120 -89 145 -144 24 -55 41 -147 33
-184 l-7 -29 -234 0 c-261 0 -256 2 -214 -68 46 -75 173 -82 234 -13 24 26 32
26 117 1 l69 -21 -15 -29 c-23 -45 -109 -108 -172 -126 -85 -25 -213 -16 -286
20 -253 123 -230 513 35 608 81 28 225 21 295 -15z m740 0 c64 -33 120 -89
145 -144 24 -55 41 -147 33 -184 l-7 -29 -234 0 c-261 0 -256 2 -214 -68 46
-75 173 -82 234 -13 24 26 32 26 117 1 l69 -21 -15 -29 c-23 -45 -109 -108
-172 -126 -85 -25 -213 -16 -286 20 -253 123 -230 513 35 608 81 28 225 21
295 -15z m-1337 -517 l0 -100 -85 0 -85 0 0 100 0 100 85 0 85 0 0 -100z"/>
<path d="M1024 1451 c-31 -14 -74 -69 -74 -97 l0 -24 135 0 c74 0 135 2 135 5
0 19 -31 74 -53 94 -29 26 -106 38 -143 22z"/>
<path d="M1764 1451 c-31 -14 -74 -69 -74 -97 l0 -24 135 0 c74 0 135 2 135 5
0 19 -31 74 -53 94 -29 26 -106 38 -143 22z"/>
</g>
</svg>
